<svg width="20" height="16" viewBox="0 0 20 16" fill="none" xmlns="http://www.w3.org/2000/svg">
<path d="M19.8922 2.15178C19.1801 2.4587 18.4067 2.67969 17.6087 2.76562C18.4312 2.27455 19.0574 1.50112 19.352 0.580357C18.5908 1.0346 17.7315 1.36607 16.8353 1.53795C16.1109 0.764508 15.0797 0.285714 13.9379 0.285714C11.7404 0.285714 9.97253 2.06585 9.97253 4.25112C9.97253 4.55803 10.0094 4.86495 10.0707 5.1596C6.78057 4.98772 3.84642 3.41629 1.89441 1.01004C1.55066 1.59933 1.35423 2.27455 1.35423 3.01116C1.35423 4.38616 2.05401 5.60156 3.12209 6.31362C2.47142 6.28906 1.85758 6.10491 1.32968 5.81027C1.32968 5.82254 1.32968 5.8471 1.32968 5.85937C1.32968 7.78683 2.6924 9.38281 4.50936 9.75112C4.17789 9.83705 3.82186 9.88616 3.46584 9.88616C3.20803 9.88616 2.96249 9.86161 2.71695 9.82478C3.2203 11.3962 4.68124 12.5379 6.42454 12.5748C5.06182 13.6429 3.35535 14.269 1.50155 14.269C1.17008 14.269 0.863159 14.2567 0.543963 14.2199C2.29954 15.3493 4.3866 16 6.63325 16C13.9257 16 17.9156 9.95982 17.9156 4.71763C17.9156 4.54576 17.9156 4.37388 17.9033 4.20201C18.6768 3.63728 19.352 2.9375 19.8922 2.15178Z" fill="#035755"/>
</svg>
