<svg width="75" height="75" viewBox="0 0 75 75" fill="none" xmlns="http://www.w3.org/2000/svg">
<circle opacity="0.15" cx="37.5" cy="37.5" r="37.5" fill="#FA5652"/>
<path d="M22.048 55.44C20.024 55.44 18.176 55.0587 16.504 54.296C14.832 53.5333 13.4093 52.4627 12.236 51.084C11.0627 49.7053 10.1387 48.0333 9.464 46.068C8.81867 44.1027 8.496 41.932 8.496 39.556C8.496 37.2093 8.81867 35.0533 9.464 33.088C10.1387 31.1227 11.0627 29.4507 12.236 28.072C13.4387 26.6933 14.876 25.6227 16.548 24.86C18.22 24.0973 20.0533 23.716 22.048 23.716C24.072 23.716 25.92 24.0973 27.592 24.86C29.264 25.6227 30.6867 26.6933 31.86 28.072C33.0333 29.4507 33.9427 31.1227 34.588 33.088C35.2627 35.0533 35.6 37.2093 35.6 39.556C35.6 41.932 35.2773 44.1027 34.632 46.068C33.9867 48.0333 33.0627 49.7053 31.86 51.084C30.6867 52.4627 29.264 53.5333 27.592 54.296C25.92 55.0587 24.072 55.44 22.048 55.44ZM22.048 50.204C24.424 50.204 26.3013 49.2507 27.68 47.344C29.0587 45.4373 29.748 42.8413 29.748 39.556C29.748 36.3293 29.044 33.7627 27.636 31.856C26.2573 29.92 24.3947 28.952 22.048 28.952C19.7013 28.952 17.8387 29.92 16.46 31.856C15.0813 33.7627 14.392 36.3293 14.392 39.556C14.392 42.8413 15.0813 45.4373 16.46 47.344C17.8387 49.2507 19.7013 50.204 22.048 50.204ZM62.4211 46.42C62.4211 47.7107 62.1131 48.9133 61.4971 50.028C60.8811 51.1427 60.0158 52.096 58.9011 52.888C57.8158 53.68 56.5104 54.3107 54.9851 54.78C53.4891 55.22 51.8464 55.44 50.0571 55.44C47.6811 55.44 45.4224 55.0147 43.2811 54.164C41.1398 53.3133 39.3504 52.14 37.9131 50.644L41.9611 46.904C43.1931 48.136 44.4104 49.0013 45.6131 49.5C46.8158 49.9987 48.2824 50.248 50.0131 50.248C51.8904 50.248 53.4158 49.852 54.5891 49.06C55.7624 48.268 56.3491 47.2413 56.3491 45.98C56.3491 44.836 55.8064 43.9267 54.7211 43.252C53.6651 42.5773 52.2571 42.24 50.4971 42.24H47.6811V37.444H49.8811C51.4651 37.444 52.7851 37.0187 53.8411 36.168C54.8971 35.3173 55.4251 34.2467 55.4251 32.956C55.4251 31.812 54.8971 30.8587 53.8411 30.096C52.8144 29.3333 51.5091 28.952 49.9251 28.952C48.4291 28.952 47.1091 29.2307 45.9651 29.788C44.8211 30.316 43.5891 31.24 42.2691 32.56L38.1771 28.82C39.6731 27.236 41.4771 25.9893 43.5891 25.08C45.7011 24.1707 47.8864 23.716 50.1451 23.716C51.7878 23.716 53.2984 23.936 54.6771 24.376C56.0851 24.7867 57.2878 25.3733 58.2851 26.136C59.2824 26.8987 60.0598 27.808 60.6171 28.864C61.1744 29.92 61.4531 31.0787 61.4531 32.34C61.4531 33.8653 61.0424 35.2587 60.2211 36.52C59.3998 37.752 58.2851 38.7347 56.8771 39.468C58.5491 40.0547 59.8838 40.964 60.8811 42.196C61.9078 43.428 62.4211 44.836 62.4211 46.42Z" fill="#FA5652"/>
</svg>
