<svg width="75" height="75" viewBox="0 0 75 75" fill="none" xmlns="http://www.w3.org/2000/svg">
<circle opacity="0.15" cx="37.4995" cy="37.5" r="37.5" fill="#FA5652"/>
<path d="M24.0475 54.44C22.0235 54.44 20.1755 54.0587 18.5035 53.296C16.8315 52.5333 15.4088 51.4627 14.2355 50.084C13.0622 48.7053 12.1382 47.0333 11.4635 45.068C10.8182 43.1027 10.4955 40.932 10.4955 38.556C10.4955 36.2093 10.8182 34.0533 11.4635 32.088C12.1382 30.1227 13.0622 28.4507 14.2355 27.072C15.4382 25.6933 16.8755 24.6227 18.5475 23.86C20.2195 23.0973 22.0528 22.716 24.0475 22.716C26.0715 22.716 27.9195 23.0973 29.5915 23.86C31.2635 24.6227 32.6862 25.6933 33.8595 27.072C35.0328 28.4507 35.9422 30.1227 36.5875 32.088C37.2622 34.0533 37.5995 36.2093 37.5995 38.556C37.5995 40.932 37.2768 43.1027 36.6315 45.068C35.9862 47.0333 35.0622 48.7053 33.8595 50.084C32.6862 51.4627 31.2635 52.5333 29.5915 53.296C27.9195 54.0587 26.0715 54.44 24.0475 54.44ZM24.0475 49.204C26.4235 49.204 28.3008 48.2507 29.6795 46.344C31.0582 44.4373 31.7475 41.8413 31.7475 38.556C31.7475 35.3293 31.0435 32.7627 29.6355 30.856C28.2568 28.92 26.3942 27.952 24.0475 27.952C21.7008 27.952 19.8382 28.92 18.4595 30.856C17.0808 32.7627 16.3915 35.3293 16.3915 38.556C16.3915 41.8413 17.0808 44.4373 18.4595 46.344C19.8382 48.2507 21.7008 49.204 24.0475 49.204ZM39.8043 54V49.776L51.9483 38.908C53.327 37.6467 54.3097 36.5467 54.8963 35.608C55.483 34.64 55.7763 33.6427 55.7763 32.616C55.7763 31.2667 55.2483 30.152 54.1923 29.272C53.1363 28.392 51.8163 27.952 50.2323 27.952C48.7657 27.952 47.387 28.2453 46.0963 28.832C44.835 29.4187 43.4563 30.3867 41.9603 31.736L38.5723 27.688C40.3617 26.0747 42.2537 24.8573 44.2483 24.036C46.243 23.2147 48.2963 22.804 50.4083 22.804C52.051 22.804 53.5617 23.0387 54.9403 23.508C56.3483 23.948 57.5363 24.5787 58.5043 25.4C59.5017 26.2213 60.2643 27.2187 60.7923 28.392C61.3497 29.5653 61.6283 30.8413 61.6283 32.22C61.6283 33.98 61.1883 35.608 60.3083 37.104C59.4283 38.6 57.903 40.316 55.7323 42.252L48.2083 48.94H62.0243V54H39.8043Z" fill="#FA5652"/>
</svg>
