<svg width="75" height="75" viewBox="0 0 75 75" fill="none" xmlns="http://www.w3.org/2000/svg">
<circle opacity="0.15" cx="37.5" cy="37.5" r="37.5" fill="#FA5652"/>
<path d="M28.048 53.44C26.024 53.44 24.176 53.0587 22.504 52.296C20.832 51.5333 19.4093 50.4627 18.236 49.084C17.0627 47.7053 16.1387 46.0333 15.464 44.068C14.8187 42.1027 14.496 39.932 14.496 37.556C14.496 35.2093 14.8187 33.0533 15.464 31.088C16.1387 29.1227 17.0627 27.4507 18.236 26.072C19.4387 24.6933 20.876 23.6227 22.548 22.86C24.22 22.0973 26.0533 21.716 28.048 21.716C30.072 21.716 31.92 22.0973 33.592 22.86C35.264 23.6227 36.6867 24.6933 37.86 26.072C39.0333 27.4507 39.9427 29.1227 40.588 31.088C41.2627 33.0533 41.6 35.2093 41.6 37.556C41.6 39.932 41.2773 42.1027 40.632 44.068C39.9867 46.0333 39.0627 47.7053 37.86 49.084C36.6867 50.4627 35.264 51.5333 33.592 52.296C31.92 53.0587 30.072 53.44 28.048 53.44ZM28.048 48.204C30.424 48.204 32.3013 47.2507 33.68 45.344C35.0587 43.4373 35.748 40.8413 35.748 37.556C35.748 34.3293 35.044 31.7627 33.636 29.856C32.2573 27.92 30.3947 26.952 28.048 26.952C25.7013 26.952 23.8387 27.92 22.46 29.856C21.0813 31.7627 20.392 34.3293 20.392 37.556C20.392 40.8413 21.0813 43.4373 22.46 45.344C23.8387 47.2507 25.7013 48.204 28.048 48.204ZM56.0152 22.2V53H49.9872V28.316L43.9592 30.78V25.544L52.1872 22.2H56.0152Z" fill="#FA5652"/>
</svg>
