<svg width="58" height="33" viewBox="0 0 58 33" fill="none" xmlns="http://www.w3.org/2000/svg">
<path d="M14.048 32.3223C12.024 32.3223 10.176 31.941 8.504 31.1783C6.832 30.4157 5.40933 29.345 4.236 27.9663C3.06267 26.5877 2.13867 24.9157 1.464 22.9503C0.818667 20.985 0.496 18.8143 0.496 16.4383C0.496 14.0917 0.818667 11.9357 1.464 9.97032C2.13867 8.00499 3.06267 6.33299 4.236 4.95432C5.43867 3.57566 6.876 2.50499 8.548 1.74232C10.22 0.979656 12.0533 0.598323 14.048 0.598323C16.072 0.598323 17.92 0.979656 19.592 1.74232C21.264 2.50499 22.6867 3.57566 23.86 4.95432C25.0333 6.33299 25.9427 8.00499 26.588 9.97032C27.2627 11.9357 27.6 14.0917 27.6 16.4383C27.6 18.8143 27.2773 20.985 26.632 22.9503C25.9867 24.9157 25.0627 26.5877 23.86 27.9663C22.6867 29.345 21.264 30.4157 19.592 31.1783C17.92 31.941 16.072 32.3223 14.048 32.3223ZM14.048 27.0863C16.424 27.0863 18.3013 26.133 19.68 24.2263C21.0587 22.3197 21.748 19.7237 21.748 16.4383C21.748 13.2117 21.044 10.645 19.636 8.73832C18.2573 6.80232 16.3947 5.83432 14.048 5.83432C11.7013 5.83432 9.83867 6.80232 8.46 8.73832C7.08133 10.645 6.392 13.2117 6.392 16.4383C6.392 19.7237 7.08133 22.3197 8.46 24.2263C9.83867 26.133 11.7013 27.0863 14.048 27.0863ZM53.7171 1.08232V19.6063H57.5011V24.6663H53.7171V31.8823H47.6891V24.6663H30.3091V19.8263L46.7651 1.08232H53.7171ZM37.2611 19.6063H47.6891V7.77032L37.2611 19.6063Z" fill="#FA5652"/>
</svg>
