<svg width="77" height="24" viewBox="0 0 77 24" fill="none" xmlns="http://www.w3.org/2000/svg">
<path d="M24.4601 23H19.8101V8.9L14.2601 23H10.4201L4.87006 9.08V23H0.370059V1.73H6.55006L12.4001 16.1L17.9501 1.73H24.4601V23ZM31.4845 13.76H37.4545C37.4145 13.08 37.1445 12.49 36.6445 11.99C36.1645 11.49 35.4345 11.24 34.4545 11.24C33.5745 11.24 32.8745 11.5 32.3545 12.02C31.8345 12.54 31.5445 13.12 31.4845 13.76ZM37.7845 17.63L41.5945 18.71C41.2145 20.09 40.4245 21.23 39.2245 22.13C38.0245 23.01 36.5245 23.45 34.7245 23.45C32.5645 23.45 30.7245 22.73 29.2045 21.29C27.7045 19.85 26.9545 17.92 26.9545 15.5C26.9545 13.18 27.6845 11.29 29.1445 9.83C30.6245 8.37 32.3745 7.64 34.3945 7.64C36.7145 7.64 38.5345 8.32 39.8545 9.68C41.1945 11.02 41.8645 12.89 41.8645 15.29C41.8645 16.05 41.8345 16.52 41.7745 16.7H31.3945C31.4345 17.52 31.7845 18.21 32.4445 18.77C33.1045 19.31 33.8845 19.58 34.7845 19.58C36.3245 19.58 37.3245 18.93 37.7845 17.63ZM58.8623 1.28V20.33C58.8623 21.23 58.9023 22.12 58.9823 23H54.6023C54.5223 22.52 54.4823 22.04 54.4823 21.56C54.1223 22.08 53.5823 22.51 52.8623 22.85C52.1623 23.17 51.3723 23.33 50.4923 23.33C48.3723 23.33 46.6123 22.6 45.2123 21.14C43.8123 19.66 43.1123 17.78 43.1123 15.5C43.1123 13.26 43.7923 11.41 45.1523 9.95C46.5123 8.47 48.2423 7.73 50.3423 7.73C52.3823 7.73 53.7223 8.24 54.3623 9.26V1.28H58.8623ZM48.6623 12.8C48.0223 13.44 47.7023 14.35 47.7023 15.53C47.7023 16.71 48.0223 17.63 48.6623 18.29C49.3223 18.93 50.1223 19.25 51.0623 19.25C52.0023 19.25 52.7923 18.93 53.4323 18.29C54.0923 17.63 54.4223 16.71 54.4223 15.53C54.4223 14.35 54.0923 13.44 53.4323 12.8C52.7923 12.16 52.0023 11.84 51.0623 11.84C50.1223 11.84 49.3223 12.16 48.6623 12.8ZM66.9316 23H62.3716V8.09H66.9316V23ZM62.7616 5.42C62.2416 4.9 61.9816 4.27 61.9816 3.53C61.9816 2.79 62.2416 2.16 62.7616 1.64C63.2816 1.12 63.9016 0.859999 64.6216 0.859999C65.3616 0.859999 65.9916 1.12 66.5116 1.64C67.0516 2.16 67.3216 2.79 67.3216 3.53C67.3216 4.27 67.0516 4.9 66.5116 5.42C65.9916 5.94 65.3616 6.2 64.6216 6.2C63.9016 6.2 63.2816 5.94 62.7616 5.42Z" fill="#0A1B32"/>
<path d="M71.0463 22.37C70.4463 21.75 70.1463 21.02 70.1463 20.18C70.1463 19.34 70.4463 18.62 71.0463 18.02C71.6463 17.42 72.3663 17.12 73.2063 17.12C74.0463 17.12 74.7663 17.42 75.3663 18.02C75.9863 18.62 76.2963 19.34 76.2963 20.18C76.2963 21 75.9863 21.72 75.3663 22.34C74.7663 22.96 74.0463 23.27 73.2063 23.27C72.3663 23.27 71.6463 22.97 71.0463 22.37Z" fill="#A3DC00"/>
</svg>
